<svg xmlns="http://www.w3.org/2000/svg" viewBox="-155 247 300 300"><path fill="#3ae88d" d="M-154.6 247.4H145V547h-299.6z"/><path d="M-65.3 429.8c0 33.6 26.7 60.3 60.3 60.3s60.3-26.7 60.3-60.3v-34.5H-65.3v34.5zm95.6-100l18.1-18.1-6.9-6.9-19.8 19.8c-7.8-4.3-17.2-6.9-26.7-6.9s-19 2.6-26.7 6l-19.8-19.8-6.9 7.8 18.1 18.1c-15.5 10.3-25 28.4-25 48.3v8.6H55.3V378c0-19.8-9.4-37.9-25-48.2zm-61.2 39.6c-5.2 0-8.6-3.4-8.6-8.6 0-5.2 3.4-8.6 8.6-8.6s8.6 3.4 8.6 8.6c.1 5.2-3.4 8.6-8.6 8.6zm51.8 0c-5.2 0-8.6-3.4-8.6-8.6 0-5.2 3.4-8.6 8.6-8.6s8.6 3.4 8.6 8.6c0 5.2-3.5 8.6-8.6 8.6z" fill="#fff"/></svg>