<svg version="1.1" id="Calque_1" xmlns="http://www.w3.org/2000/svg" x="0" y="0" viewBox="-155 247 300 300" xml:space="preserve"><style>.st1{fill:#fff}</style><path fill="#f93232" d="M-154.6 247.4H145V547h-299.6z"/><path class="st1" d="M-5 375.2c-12 0-21.8 9.8-21.8 21.8S-17 418.8-5 418.8 16.8 409 16.8 397 7 375.2-5 375.2zm0 34.9c-7.2 0-13.1-5.9-13.1-13.1 0-7.2 5.9-13.1 13.1-13.1S8.1 389.8 8.1 397c0 7.2-5.9 13.1-13.1 13.1z"/><path class="st1" d="M54 397c4.6-7.5 8.2-14.9 10.8-22.1 6.9-19.2 5.6-34.9-3.6-44.1-9.2-9.2-24.9-10.5-44.1-3.6C9.9 329.8 2.5 333.4-5 338c-7.5-4.6-14.9-8.2-22.1-10.8-19.2-6.9-34.9-5.6-44.1 3.6-9.2 9.2-10.5 24.9-3.6 44.1 2.6 7.2 6.3 14.7 10.8 22.1-4.6 7.5-8.2 14.9-10.8 22.1-6.9 19.2-5.6 34.9 3.6 44.1 5.3 5.3 12.7 8 21.7 8 6.7 0 14.2-1.5 22.4-4.4 7.2-2.6 14.7-6.3 22.1-10.8 7.5 4.6 14.9 8.2 22.1 10.8 8.2 2.9 15.7 4.4 22.4 4.4 9 0 16.4-2.7 21.7-8 9.2-9.2 10.5-24.9 3.6-44.1-2.6-7.2-6.2-14.6-10.8-22.1zm-33.9-61.6c7.2-2.6 13.7-3.9 19.4-3.9.7 0 1.3 0 1.9.1 5.9.3 10.5 2.1 13.7 5.4 3.2 3.2 5 7.9 5.4 13.7.3 6.1-1 13.3-3.8 21.3-2 5.5-4.7 11.2-7.9 17-5.9-8.5-13-16.8-20.9-24.7s-16.3-14.9-24.7-20.9c5.6-3.4 11.3-6 16.9-8zM43.7 397c-6 9.1-13.5 18.2-22 26.7s-17.6 16-26.7 22c-9.1-6-18.2-13.5-26.7-22s-16-17.6-22-26.7c6-9.1 13.5-18.2 22-26.7s17.6-16 26.7-22c9.1 6 18.2 13.5 26.7 22s16 17.6 22 26.7zm-110.3-25.1c-2.9-8-4.2-15.2-3.8-21.3.3-5.9 2.1-10.5 5.4-13.7 3.2-3.2 7.9-5 13.7-5.4.6 0 1.3-.1 1.9-.1 5.7 0 12.2 1.3 19.4 3.9 5.5 2 11.2 4.7 17 7.9-8.5 5.9-16.8 13-24.7 20.9s-14.9 16.3-20.9 24.7c-3.4-5.6-6-11.3-8-16.9zm36.5 86.7c-8 2.9-15.2 4.2-21.3 3.8-5.9-.3-10.5-2.1-13.7-5.4-3.2-3.2-5-7.9-5.4-13.7-.3-6.1 1-13.3 3.8-21.3 2-5.5 4.7-11.2 7.9-17 5.9 8.5 13 16.8 20.9 24.7s16.3 14.9 24.7 20.9c-5.6 3.4-11.3 6-16.9 8zm90.6-15.2c-.3 5.9-2.1 10.5-5.4 13.7-3.2 3.2-7.9 5-13.7 5.4-6.1.3-13.3-1-21.3-3.8-5.5-2-11.2-4.7-17-7.9 8.5-5.9 16.8-13 24.7-20.9s14.9-16.3 20.9-24.7c3.3 5.7 5.9 11.4 7.9 17 2.9 7.9 4.2 15 3.9 21.2z"/></svg>