<svg version="1.1" id="Calque_1" xmlns="http://www.w3.org/2000/svg" xmlns:xlink="http://www.w3.org/1999/xlink" x="0" y="0" viewBox="0 0 800 800" xml:space="preserve"><style>.st1{fill:#38c6ae}.st2{fill:#28af9c}.st7{fill:#d6305b}</style><defs><path id="SVGID_1_" d="M-3.1 0H800v800H-3.1z"/></defs><clipPath id="SVGID_2_"><use xlink:href="#SVGID_1_" overflow="visible"/></clipPath><g clip-path="url(#SVGID_2_)"><path class="st1" d="M549.2 340.7h17v94.8h-17zm12.4-5.4c-1.5 1.3-3.9 1.6-5.7.9-.7-.2-1.6-.2-2.3-.6-2.7 1.9-4.2 5-4.2 5h17c-.2.1-1.8-3.4-4.8-5.3z"/><path class="st2" d="M561.6 335.3c-1.1-.7-2.4-1.2-3.8-1.2-1.6 0-3.1.6-4.3 1.5.7.4 1.6.4 2.3.6 1.9.6 4.3.4 5.8-.9zm4.6 15l-17 6.3V350l17-6.3zm0 14.5l-17 6.2v-6.6l17-6.2zm0 14.5l-17 6.2v-6.6l17-6.3zm0 14.4l-17 6.3v-6.6l17-6.3zm0 14.5l-17 6.2v-6.6l17-6.2zm0 14.4l-17 6.3v-6.6l17-6.3zm-8-93.4c1.8-.8 4.9-3.1 6.2-4.9 10.4-13.4-2.1-29.4-4-32-1.6-2.1-4.7-4.7-5.2-5 .8 3.1.9 5.6-.4 9-2.3 6-7.6 12.4-6.3 19.9.9 5.2 5.1 11.6 9.4 12.7l.3.3z"/><path class="st1" d="M558.2 329.2c1.2-.4 2.9-1.6 3.5-2.9 3.2-7 .5-11.5-.5-13.2-1-1.8-3.8-5.9-3.8-6.7 0 1.1-2.1 4.7-3.8 9.9s-1.2 7.6.5 10.1c1.1 1.3 2.3 2.2 4.1 2.8z"/><path class="st1" d="M558.2 329.2c.9-.3 5.5-3.9 2.3-9.4-.8-1.3-3-4.8-3-4.8s-1.7 3.3-3 7c-1.3 3.8 2.2 6.7 3.7 7.2zm-1.2 3.4h2v2.7h-2z"/><path class="st1" d="M559 332.8h-2c0-.6 0-1.1.1-1.7.1-1.7.2-3.6-.5-7.5l1.9-.7c.8 4.4.7 6.6.6 8.4-.1.6-.1 1.1-.1 1.5zm65 7.9h17v94.8h-17zm12.2-5.4c-1.5 1.3-3.9 1.6-5.7.9-.7-.2-1.6-.2-2.3-.6-2.7 1.9-4.2 5-4.2 5h17c0 .1-1.8-3.4-4.8-5.3z"/><path class="st2" d="M636.2 335.3c-1.1-.7-2.4-1.2-3.8-1.2-1.6 0-3.1.6-4.3 1.5.7.4 1.6.4 2.3.6 2 .6 4.3.4 5.8-.9zm4.8 15l-17 6.3V350l17-6.3zm0 14.5l-17 6.2v-6.6l17-6.2zm0 14.5l-17 6.2v-6.6l17-6.3zm0 14.4l-17 6.3v-6.6l17-6.3zm0 14.5l-17 6.2v-6.6l17-6.2zm0 14.4l-17 6.3v-6.6l17-6.3zm-8-93.4c1.8-.8 4.9-3.1 6.2-4.9 10.4-13.4-2.1-29.4-4-32-1.6-2.1-4.7-4.7-5.2-5 .8 3.1.9 5.6-.4 9-2.3 6-7.6 12.4-6.3 19.9.9 5.2 5.1 11.6 9.4 12.7l.3.3z"/><path class="st1" d="M633 329.2c1.2-.4 2.9-1.6 3.5-2.9 3.2-7 .5-11.5-.5-13.2-1-1.8-3.8-5.9-3.8-6.7 0 1.1-2.1 4.7-3.8 9.9-1.7 5.2-1.2 7.6.5 10.1 1.1 1.3 2.1 2.2 4.1 2.8z"/><path class="st1" d="M632.9 329.2c.9-.3 5.5-3.9 2.3-9.4-.8-1.3-3-4.8-3-4.8s-1.7 3.3-3 7c-1.3 3.8 2.2 6.7 3.7 7.2zm-1.3 3.4h2v2.7h-2z"/><path class="st1" d="M633.6 332.8h-2c0-.6 0-1.1.1-1.7.1-1.7.2-3.6-.5-7.5l1.9-.7c.8 4.4.7 6.6.6 8.4 0 .6-.1 1.1-.1 1.5zm65 7.9h17v94.8h-17zm12.3-5.4c-1.5 1.3-3.9 1.6-5.7.9-.7-.2-1.6-.2-2.3-.6-2.7 1.9-4.2 5-4.2 5h17c-.1.1-1.8-3.4-4.8-5.3z"/><path class="st2" d="M710.9 335.3c-1.1-.7-2.4-1.2-3.8-1.2-1.6 0-3.1.6-4.3 1.5.7.4 1.6.4 2.3.6 1.9.6 4.3.4 5.8-.9zm4.7 15l-17 6.3V350l17-6.3zm0 14.5l-17 6.2v-6.6l17-6.2zm0 14.5l-17 6.2v-6.6l17-6.3zm0 14.4l-17 6.3v-6.6l17-6.3zm0 14.5l-17 6.2v-6.6l17-6.2zm0 14.4l-17 6.3v-6.6l17-6.3zm-8-93.4c1.8-.8 4.9-3.1 6.2-4.9 10.4-13.4-2.1-29.4-4-32-1.6-2.1-4.7-4.7-5.2-5 .8 3.1.9 5.6-.4 9-2.3 6-7.6 12.4-6.3 19.9.9 5.2 5.1 11.6 9.4 12.7l.3.3z"/><path class="st1" d="M707.6 329.2c1.2-.4 2.9-1.6 3.5-2.9 3.2-7 .5-11.5-.5-13.2-1-1.8-3.8-5.9-3.8-6.7 0 1.1-2.1 4.7-3.8 9.9s-1.2 7.6.5 10.1c1.1 1.3 2.2 2.2 4.1 2.8z"/><path class="st1" d="M707.6 329.2c.9-.3 5.5-3.9 2.3-9.4-.8-1.3-3-4.8-3-4.8s-1.7 3.3-3 7c-1.3 3.8 2.1 6.7 3.7 7.2zm-1.4 3.4h2v2.7h-2z"/><path class="st1" d="M708.2 332.8h-2c0-.6 0-1.1.1-1.7.1-1.7.2-3.6-.5-7.5l1.9-.7c.8 4.4.7 6.6.6 8.4-.1.6-.1 1.1-.1 1.5z"/><path d="M722.2 435.5h-17.1m0-35.5v-6.6m0 21v-6.6m0 21.1v-6.6m-62.6 13.2h-16.9m0-34.5v-6.6m16.9 7.5v6.6m-16.9 6.1v-6.5m16.9 8.1v6.6m-16.9 6.1v-6.5" fill="none"/><path class="st1" d="M773.9 573.1c0 6-4.9 10.9-10.9 10.9H503.4c-6 0-10.9-4.9-10.9-10.9V441c0-6 4.9-10.9 10.9-10.9H763c6 0 10.9 4.9 10.9 10.9v132.1z"/><path class="st2" d="M492.4 505.8h281.5v12.9H492.4z"/><defs><path id="SVGID_3_" d="M773.9 573.1c0 6-4.9 10.9-10.9 10.9H503.4c-6 0-10.9-4.9-10.9-10.9V441c0-6 4.9-10.9 10.9-10.9H763c6 0 10.9 4.9 10.9 10.9v132.1z"/></defs><clipPath id="SVGID_4_"><use xlink:href="#SVGID_3_" overflow="visible"/></clipPath><path d="M452.7 368.1v73.1c0 22 17.9 39.9 39.9 39.9 15.4 0 28.8-8.8 35.4-21.6 6.6 12.8 20 21.6 35.4 21.6s28.8-8.8 35.4-21.6c6.6 12.8 20 21.6 35.4 21.6s28.8-8.8 35.4-21.6c6.6 12.8 20 21.6 35.4 21.6s28.8-8.8 35.4-21.6c6.6 12.8 20 21.6 35.4 21.6 22 0 39.9-17.9 39.9-39.9v-73.1h-363z" clip-path="url(#SVGID_4_)" fill="#28af9c"/><path class="st2" d="M534.1 419.9c0 8.2-6.6 14.8-14.8 14.8s-14.8-6.6-14.8-14.8 6.6-14.8 14.8-14.8 14.8 6.6 14.8 14.8z"/><circle class="st2" cx="595.1" cy="419.9" r="14.8"/><circle class="st2" cx="670.9" cy="419.9" r="14.8"/><circle class="st2" cx="746.7" cy="419.9" r="14.8"/><path class="st1" d="M845.9 742.8c0 8.9-7.2 16.1-16.1 16.1H428.9c-8.9 0-16.1-7.2-16.1-16.1v-167c0-8.9 7.2-16.1 16.1-16.1h400.8c8.9 0 16.1 7.2 16.1 16.1l.1 167z"/><defs><path id="SVGID_5_" d="M845.9 742.8c0 8.9-7.2 16.1-16.1 16.1H428.9c-8.9 0-16.1-7.2-16.1-16.1v-167c0-8.9 7.2-16.1 16.1-16.1h400.8c8.9 0 16.1 7.2 16.1 16.1l.1 167z"/></defs><clipPath id="SVGID_6_"><use xlink:href="#SVGID_5_" overflow="visible"/></clipPath><path d="M882.2 507.7H380.5v78.4c0 25.5 20.6 46.1 46.1 46.1 17.8 0 33.3-10.1 40.9-24.9 7.7 14.8 23.1 24.9 40.9 24.9s33.3-10.1 40.9-24.9c7.7 14.8 23.1 24.9 40.9 24.9s33.3-10.1 40.9-24.9c7.7 14.8 23.1 24.9 41 24.9 17.8 0 33.3-10.1 40.9-24.9 7.7 14.8 23.1 24.9 40.9 24.9 17.8 0 33.3-10.1 40.9-24.9 7.7 14.8 23.1 24.9 41 24.9 25.5 0 46.1-20.6 46.1-46.1v-78.4h.3z" clip-path="url(#SVGID_6_)" fill="#28af9c"/><circle class="st2" cx="441.6" cy="550.8" r="14.8"/><path class="st2" d="M527.9 550.8c0 8.2-6.6 14.8-14.8 14.8s-14.8-6.6-14.8-14.8 6.6-14.8 14.8-14.8c8.1 0 14.8 6.7 14.8 14.8z"/><circle class="st2" cx="588.9" cy="550.8" r="14.8"/><circle class="st2" cx="664.7" cy="550.8" r="14.8"/><circle class="st2" cx="740.5" cy="550.8" r="14.8"/><circle class="st7" cx="816.2" cy="550.8" r="14.8"/><g id="object"><path class="st1" d="M922.4 921.8c0 12.7-10.3 23-23 23H359.2c-12.7 0-23-10.3-23-23V732.2c0-12.7 10.3-23 23-23h540.2c12.7 0 23 10.3 23 23v189.6z"/><path d="M336.2 884.2h586.3v16.6H336.2zm0-38h586.3v16.6H336.2z" fill="#d1305a"/><defs><path id="SVGID_7_" d="M922.4 921.8c0 12.7-10.3 23-23 23H359.2c-12.7 0-23-10.3-23-23V732.2c0-12.7 10.3-23 23-23h540.2c12.7 0 23 10.3 23 23v189.6z"/></defs><clipPath id="SVGID_8_"><use xlink:href="#SVGID_7_" overflow="visible"/></clipPath><g clip-path="url(#SVGID_8_)"><path class="st2" d="M336.2 717.7c-6.2 9-9.8 19.9-9.8 31.7 0 30.9 25 55.9 55.9 55.9 21.6 0 40.3-12.3 49.6-30.2 9.3 17.9 28 30.2 49.6 30.2s40.3-12.3 49.6-30.2c9.3 17.9 28 30.2 49.6 30.2s40.3-12.3 49.6-30.2c9.3 17.9 28 30.2 49.6 30.2s40.3-12.3 49.6-30.2c9.3 17.9 28 30.2 49.6 30.2s40.3-12.3 49.6-30.2c9.3 17.9 28 30.2 49.6 30.2 30.8 0 55.9-25 55.9-55.9v-77.9h-598v46.2z"/></g><circle class="st2" cx="364.2" cy="701.2" r="14.8"/><path class="st2" d="M450.6 701.2c0 8.2-6.6 14.8-14.8 14.8s-14.8-6.6-14.8-14.8 6.6-14.8 14.8-14.8 14.8 6.7 14.8 14.8z"/><circle class="st2" cx="511.6" cy="701.2" r="14.8"/><circle class="st2" cx="587.4" cy="701.2" r="14.8"/><circle class="st2" cx="663.2" cy="701.2" r="14.8"/><circle class="st2" cx="739" cy="701.2" r="14.8"/><circle class="st7" cx="814.7" cy="701.2" r="14.8"/><circle class="st7" cx="890.6" cy="701.2" r="14.8"/></g></g></svg>