<svg version="1.1" id="Calque_1" xmlns="http://www.w3.org/2000/svg" x="0" y="0" viewBox="0 0 800 800" xml:space="preserve"><style>.st4{fill:#fefcfe}.st6{fill:#2f363e}</style><path d="M-5066.2 671.5c0 21.4-1.6 42.5-4.6 63.1-30.5 210-211.3 371.2-429.7 371.2-6.3 0-12.5-.2-18.8-.4-231.2-9.8-415.6-200.3-415.6-433.8 0-239.9 194.5-434.3 434.3-434.3 240 0 434.4 194.3 434.4 434.2z" fill="#e6e7e9"/><path d="M-5500.4 224.8c-246.3 0-446.8 200.4-446.8 446.7 0 240.1 187.7 436.2 427.5 446.3 4.6.2 9.3.3 13.9.3l-12.7-12.8-13.1-13.2c-220.2-15.9-390.8-198.3-390.8-420.6 0-232.6 189.2-421.8 421.9-421.8 232.6 0 421.8 189.2 421.8 421.8 0 16.8-1 33.9-3.1 50.7l11.1 11.1 10.9 10.9c.5-2.6.8-5.1 1.2-7.8 3.2-21.5 4.7-43.3 4.7-64.9.2-246.3-200.2-446.7-446.5-446.7z" fill="#fff"/><path d="M-5059.7 744.2c-34.9 213.7-223.1 374-440.7 374-1.8 0-3.6 0-5.3-.1l-12.7-12.8-13.1-13.2c4.2.3 8.5.6 12.9.7 6.1.2 12.1.4 18.3.4 208.1 0 387.4-155 417.4-360.6.5-3.5 1-7.1 1.3-10.5l11.1 11.1 10.8 11z" fill="#9e9e9e"/><path d="M-5081.7 722.2c-.3 3.5-.8 7.1-1.3 10.5-30 205.6-209.3 360.6-417.4 360.6-6.1 0-12.2-.2-18.3-.4-4.3-.2-8.6-.4-12.9-.7l-382.2-385.9 617.3-198.3 214.8 214.2z" fill="#b8b9bb"/><path class="st4" d="M-5900 706.3h150.7c.2 0 .4-.2.4-.4v-61.3c0-3.2-2.6-5.9-5.9-5.9h-144.4c-18.8 0-34.2 15.4-34.2 34.2 0 18.4 15 33.4 33.4 33.4z"/><circle class="st4" cx="-5500.5" cy="671.5" r="260.2"/><path d="M-5285.8 671.5c0 118.6-96.1 214.7-214.6 214.7-67.3 0-127.3-31-166.7-79.4-30.1-36.9-48.1-84-48.1-135.3 0-118.6 96.1-214.7 214.7-214.7 83.5 0 155.9 47.7 191.3 117.4 15 29.2 23.4 62.3 23.4 97.3z" fill="#20262b"/><path class="st6" d="M-5285.8 671.5c0 118.6-96.1 214.7-214.6 214.7-67.3 0-127.3-31-166.7-79.4-14.9-29.2-23.3-62.3-23.3-97.3 0-118.5 96.1-214.7 214.6-214.7 67.3 0 127.3 31 166.7 79.4 14.9 29.2 23.3 62.3 23.3 97.3z"/><path d="M800.1 800H311.4l-31.2-24.7c-13.9-11-16.3-31.2-5.2-45.1l370.5-467.9c11-13.9 31.2-16.3 45.1-5.2l109.5 86.7v116.9c.3.5.3 1.1 0 1.6V800z" fill="#32649b"/><path d="M772.2 800H469.9l317.2-400.5c3.2-4 8.4-5.4 13-4v65.2c.3.5.3 1.1 0 1.6v302.5L772.2 800zM413.3 587l123.6-156.1c2.8-3.6 8-4.2 11.5-1.3l109.8 87c3.6 2.8 4.2 8 1.3 11.5L535.9 684.2c-2.8 3.6-8 4.2-11.5 1.3l-109.8-87c-3.5-2.8-4.1-8-1.3-11.5z" fill="#255784"/><path d="M787.4 752l-7.8-6.1c-2.6-2.1-3.1-5.9-1-8.5l14.8-18.7c1.6-2 4.3-2.7 6.6-2v29l-4.2 5.3c-2 2.7-5.8 3.1-8.4 1zm-34.6 18.2l16.7-21.1c1.5-1.9 4.4-2.3 6.3-.7l10.1 8c1.9 1.5 2.3 4.4.7 6.3l-16.7 21.1c-1.5 1.9-4.4 2.3-6.3.7l-10.1-8c-2-1.6-2.3-4.4-.7-6.3zm4.3 29.8h-28l14.4-18.2c2.1-2.6 5.9-3 8.5-1l7.8 6.1c2.6 2.1 3 5.9 1 8.5l-3.7 4.6zm43-262.1l-2.2-1.7c-.6-.5-.7-1.3-.2-1.9l2.4-3.1v6.7zm-44.6-11.1l18.5-23.4c.5-.6 1.3-.7 1.9-.2l23.4 18.5c.6.5.7 1.3.2 1.9L781 547c-.5.6-1.3.7-1.9.2l-23.4-18.5c-.5-.5-.6-1.3-.2-1.9zm44.6-75.3l-22.4-17.8c-.6-.5-.7-1.4-.2-2l18.4-23.3c.5-.6 1.4-.7 2-.2l2.2 1.8v41.5zm-20.5 34.4l-26.5-21c-.6-.5-.7-1.4-.2-2l18.4-23.3c.5-.6 1.4-.7 2-.2l26.5 21 .3.3c.3.5.3 1.1 0 1.6 0 0 0 .1-.1.1l-18.4 23.3c-.5.6-1.4.7-2 .2zm-50.7 7.1l18.4-23.3c.5-.6 1.4-.7 2-.2l26.5 21c.6.5.7 1.4.2 2l-18.4 23.3c-.5.6-1.4.7-2 .2l-26.5-21c-.6-.5-.7-1.4-.2-2zm-30.1 38l24.3-30.7c.6-.7 1.6-.8 2.3-.3l26.2 20.8c.7.6.8 1.6.3 2.3l-24.3 30.7c-.6.7-1.6.8-2.3.3l-26.2-20.8c-.7-.6-.8-1.6-.3-2.3zM549.2 719.9l24.3-30.7c.6-.7 1.6-.8 2.3-.3l26.2 20.8c.7.6.8 1.6.3 2.3L578 742.7c-.6.7-1.6.8-2.3.3l-26.2-20.8c-.7-.5-.8-1.6-.3-2.3zM524.6 751l18.2-22.9c.5-.6 1.4-.7 2-.2l26.5 21c.6.5.7 1.4.2 2l-18.2 22.9c-.5.6-1.4.7-2 .2l-26.5-21c-.6-.5-.7-1.3-.2-2zm55-69.4l112.2-141.7c1.2-1.5 3.3-1.7 4.8-.6l23.4 18.5c1.5 1.2 1.7 3.3.6 4.8L608.4 704.3c-1.2 1.5-3.3 1.7-4.8.6l-23.4-18.5c-1.5-1.2-1.8-3.3-.6-4.8zm151.8-124.4l18.5-23.4c.5-.6 1.3-.7 1.9-.2l23.4 18.5c.6.5.7 1.3.2 1.9l-18.5 23.4c-.5.6-1.3.7-1.9.2l-23.4-18.5c-.5-.5-.6-1.3-.2-1.9zm-24 30.4l18.5-23.4c.5-.6 1.3-.7 1.9-.2l23.4 18.5c.6.5.7 1.3.2 1.9l-18.5 23.4c-.5.6-1.3.7-1.9.2l-23.4-18.5c-.6-.5-.7-1.3-.2-1.9zM683.3 618l18.5-23.4c.5-.6 1.3-.7 1.9-.2l23.4 18.5c.6.5.7 1.3.2 1.9l-18.5 23.4c-.5.6-1.3.7-1.9.2l-23.4-18.5c-.6-.5-.7-1.3-.2-1.9zm-24.1 30.4l18.5-23.4c.5-.6 1.3-.7 1.9-.2l23.4 18.5c.6.5.7 1.3.2 1.9l-18.5 23.4c-.5.6-1.3.7-1.9.2l-23.4-18.5c-.5-.5-.6-1.3-.2-1.9zm-24 30.4l18.5-23.4c.5-.6 1.3-.7 1.9-.2l23.4 18.5c.6.5.7 1.3.2 1.9L660.7 699c-.5.6-1.3.7-1.9.2l-23.4-18.5c-.6-.5-.7-1.3-.2-1.9zm-24.1 30.4l18.5-23.4c.5-.6 1.3-.7 1.9-.2l23.4 18.5c.6.5.7 1.3.2 1.9l-18.5 23.4c-.5.6-1.3.7-1.9.2l-23.4-18.5c-.6-.5-.7-1.3-.2-1.9zM587 739.6l18.5-23.4c.5-.6 1.3-.7 1.9-.2l23.4 18.5c.6.5.7 1.3.2 1.9l-18.5 23.4c-.5.6-1.3.7-1.9.2l-23.4-18.5c-.5-.5-.6-1.4-.2-1.9zM563 770l18.5-23.4c.5-.6 1.3-.7 1.9-.2l23.4 18.5c.6.5.7 1.3.2 1.9l-18.5 23.4c-.5.6-1.3.7-1.9.2l-23.4-18.5c-.6-.5-.7-1.4-.2-1.9zm-60.6 8.1l14.1-17.8c1.8-2.3 5.1-2.6 7.3-.9l6.6 5.2c2.3 1.8 2.6 5.1.9 7.3l-14.1 17.8c-1.8 2.3-5.1 2.6-7.3.9l-6.6-5.2c-2.3-1.7-2.7-5-.9-7.3zm5.9 21.9h-23.2l7.3-9.2c1.8-2.3 5.1-2.6 7.3-.9l6.6 5.2c1.5 1.3 2.2 3.1 2 4.9zM797 585.4l-23.4-18.5c-.6-.5-.7-1.3-.2-1.9l18.5-23.4c.5-.6 1.3-.7 1.9-.2l6.3 5v37.3l-1.2 1.5c-.5.6-1.3.7-1.9.2zm-47.9 10.3l18.5-23.4c.5-.6 1.3-.7 1.9-.2l23.4 18.5c.6.5.7 1.3.2 1.9l-18.5 23.4c-.5.6-1.3.7-1.9.2l-23.4-18.6c-.6-.4-.7-1.3-.2-1.8zm-24.3 30.6l18.5-23.4c.5-.6 1.3-.7 1.9-.2l23.4 18.5c.6.5.7 1.3.2 1.9l-18.5 23.4c-.5.6-1.3.7-1.9.2L725 628.2c-.6-.4-.7-1.3-.2-1.9zm-24.2 30.5l18.5-23.4c.5-.6 1.3-.7 1.9-.2l23.4 18.5c.6.5.7 1.3.2 1.9L726.1 677c-.5.6-1.3.7-1.9.2l-23.4-18.5c-.5-.4-.6-1.3-.2-1.9zm-24.3 30.7l18.5-23.4c.5-.6 1.3-.7 1.9-.2l23.4 18.5c.6.5.7 1.3.2 1.9l-18.5 23.4c-.5.6-1.3.7-1.9.2l-23.4-18.5c-.5-.5-.6-1.3-.2-1.9zm-23.2 29.4l18.5-23.4c.5-.6 1.3-.7 1.9-.2l23.4 18.5c.6.5.7 1.3.2 1.9l-18.5 23.4c-.5.6-1.3.7-1.9.2l-23.4-18.5c-.6-.5-.7-1.3-.2-1.9zM629 747.3l18.5-23.4c.5-.6 1.3-.7 1.9-.2l23.4 18.5c.6.5.7 1.3.2 1.9l-18.5 23.4c-.5.6-1.3.7-1.9.2l-23.4-18.5c-.5-.5-.6-1.4-.2-1.9zm-24.1 30.4l18.5-23.4c.5-.6 1.3-.7 1.9-.2l23.4 18.5c.6.5.7 1.3.2 1.9l-18.5 23.4c-.5.6-1.3.7-1.9.2l-23.4-18.5c-.5-.5-.6-1.4-.2-1.9zm16.4 22.3h-34l12.3-15.5c.5-.6 1.3-.7 1.9-.2l19.8 15.7zm-40.6 0h-41.5l18.5-23.3c.5-.6 1.3-.7 1.9-.2L583 795c.6.5.7 1.3.2 1.9l-2.5 3.1zm219.4-285.3L780.2 499c-.9-.7-1.1-2.1-.4-3l20.2-25.5.1 44.2zm0 111.2l-15.4-12.2c-.6-.5-.7-1.3-.2-1.9l15.7-19.8-.1 33.9zm-16.2 36.8l-23.4-18.5c-.6-.5-.7-1.3-.2-1.9l18.5-23.4c.5-.6 1.3-.7 1.9-.2l19.4 15.4v10.4l-14.3 18.1c-.5.4-1.3.5-1.9.1zm-47.8 10.1l18.5-23.4c.5-.6 1.3-.7 1.9-.2l23.4 18.5c.6.5.7 1.3.2 1.9L761.6 693c-.5.6-1.3.7-1.9.2l-23.4-18.5c-.6-.5-.7-1.3-.2-1.9zm-24 30.3l18.5-23.4c.5-.6 1.3-.7 1.9-.2l23.4 18.5c.6.5.7 1.3.2 1.9l-18.5 23.4c-.5.6-1.3.7-1.9.2L712.3 705c-.6-.5-.7-1.3-.2-1.9zm-23.5 29.7l18.5-23.4c.5-.6 1.3-.7 1.9-.2l23.4 18.5c.6.5.7 1.3.2 1.9L714.1 753c-.5.6-1.3.7-1.9.2l-23.4-18.5c-.6-.5-.7-1.4-.2-1.9zm-24.4 30.7l18.5-23.4c.5-.6 1.3-.7 1.9-.2l23.4 18.5c.6.5.7 1.3.2 1.9l-18.5 23.4c-.5.6-1.3.7-1.9.2l-23.4-18.5c-.6-.4-.7-1.3-.2-1.9zm12.7 36.5h-31.2l-5.3-4.2c-.6-.5-.7-1.3-.2-1.9l18.5-23.4c.5-.6 1.3-.7 1.9-.2l23.4 18.5c.6.5.7 1.3.2 1.9l-7.3 9.3zm123.2-100l-22-17.4c-.6-.5-.7-1.3-.2-1.9l18.5-23.4c.5-.6 1.3-.7 1.9-.2l1.8 1.4V700zm-45.8 10.4l18.5-23.4c.5-.6 1.3-.7 1.9-.2l23.4 18.5c.6.5.7 1.3.2 1.9l-18.5 23.4c-.5.6-1.3.7-1.9.2l-23.4-18.5c-.5-.4-.6-1.3-.2-1.9zm-24.4 30.9l18.5-23.4c.5-.6 1.3-.7 1.9-.2l23.4 18.5c.6.5.7 1.3.2 1.9l-18.5 23.4c-.5.6-1.3.7-1.9.2l-23.4-18.5c-.6-.4-.7-1.3-.2-1.9zm-23.8 30.1l18.5-23.4c.5-.6 1.3-.7 1.9-.2l23.4 18.5c.6.5.7 1.3.2 1.9l-18.5 23.4c-.5.6-1.3.7-1.9.2l-23.4-18.5c-.6-.5-.7-1.4-.2-1.9zm18.8 28.6h-41.5l16.8-21.2c.5-.6 1.3-.7 1.9-.2l23.4 18.5c.6.5.7 1.3.2 1.9l-.8 1z" fill="#1d4d72"/><path d="M-4208.4 1729.7c1.8-3.3 12.7-.8 24.3 5.6 11.6 6.4 19.6 14.2 17.8 17.5-1.8 3.3-12.7.8-24.3-5.6-11.7-6.3-19.6-14.2-17.8-17.5z" fill="#d6d6d6"/><path class="st6" d="M-4134.2 1729.2l-578-105.6c-10.8-2-21.9-1.9-32.6.3l-207.9 41.7c-9.2 1.8-16.9 8.6-19 17.8-1.9 8.1.3 18.7 17.3 24 6.5 2 16 1 22.5-.9l175.1-51.5c14.1-4.1 29-4.5 43.3-1.3l561.7 126.5 17.6-51z"/><path class="st6" d="M-4923.5 1439.5l513.7 285.1c9.6 5.3 18.1 12.4 25.1 20.9l134.2 164.1c5.9 7.3 7.6 17.4 3.4 25.8-3.7 7.5-12.1 14.3-28.6 7.6-6.3-2.5-13-9.4-16.9-15l-102.7-151c-8.3-12.1-19.6-21.9-32.7-28.5l-514.4-258.6 18.9-50.4z"/><path class="st6" d="M-4178.3 1788.8c5.5-5.2 24 2.2 29.9-2.6 10.4-8.4 15.8-43 14.9-53-1.4-16-21.8-3.5-59.7-38.5-104.3-96.3-287.8-105.8-287.8-105.8-10.2-9.5-26.3-18.5-44.1-24.9-17.7-6.7-35.8-10.4-49.8-9.9 0 0-145.5-112.2-287.4-107.1-51.6 1.9-58.9-20.9-70.4-9.7-7.1 7-25.6 36.8-23.1 49.9 1.4 7.5 20.2 14 21 21.5 4.9 44.8-44 116.6 36.6 178.5 80.6 62 195.9 71.4 249.9 13.9 41.1-48.4 59.3-100.2 99.6-86 1.4.4 2.9.9 4 1.3s2.5 1 3.9 1.6c39.8 15.5 19.9 66.7 19.6 130.1 3.5 78.8 97.2 146.7 198.8 152.1 101.6 5.7 111.2-80.6 144.1-111.4zm-634.9-81.8c-11.2-4.1-22.1-8.7-32.5-13.8-9.3-4.6-18.2-9.6-26.3-15.2-3.8-2.6-7.5-5.4-11-8.2-13.2-10.9-23.6-23.6-29.6-38.5-3.6-8.9-5.1-19.2-5.3-29.8-.2-20.2 4.8-42 11.1-59.1 9.6-26 19.3-45.7 43.8-58.5 21-11 47.1-10.3 74.1-4.4 17.9 3.9 36.1 10 53.7 16.5 8.1 3 16.4 6.4 24.6 10.1 4 1.8 8.1 3.7 12.1 5.7 8.3 4.1 16.5 8.6 24.3 13.4 31.5 19.3 57.4 43.9 62.8 72.1 2.1 10.9-14.4 38.7-21 50.7-32.6 59-105.9 86.7-180.8 59zm413.6 153.3c-12.7-4.7-24.3-10.6-34.8-17.4-8.4-5.5-16.1-11.6-23-18.2-2.9-2.8-5.7-5.6-8.3-8.6-18-20.1-29.5-44.1-33.8-69.3-2.8-16.2-2.6-33 .9-49.5 2.8-13.5 8.4-45.4 17.1-52.3 24.2-19.3 63.6-20 102.9-12.5 19.8 3.8 39.6 9.6 57.4 16.2 7.5 2.8 15.1 5.7 22.5 8.8 4.3 1.8 8.6 3.6 12.8 5.6 8.7 4 17.1 8.3 25 13 20.4 12.3 37 27.3 44.8 46.7 10.3 25.7 4.8 47-4.9 73.1-9.7 26.2-28.9 58.7-53.6 71.5-35.1 18.3-81 9.2-125-7.1z"/><path d="M-4611.3 1597.1c-8.7-45.6-70.8-81.7-123.8-101.3-44.1-16.3-92.8-30.4-127.8-12.1-24.5 12.8-34.2 32.5-43.8 58.5-9.7 26.1-16.2 63.2-5.9 89 14.7 36.5 55.3 59.5 99.3 75.7 75 27.8 148.2 0 180.9-59.1 6.8-12 23.2-39.8 21.1-50.7zm390.2 198.9c9.7-26.1 15.2-47.4 4.9-73.1-14.7-36.7-60.9-57.8-105.1-74.2-53.1-19.7-123.9-32.8-160.3-3.8-8.7 6.9-14.3 38.8-17.1 52.3-13.7 66.3 23.9 135.2 99.1 163 44.1 16.3 89.9 25.3 124.9 7.2 24.7-12.7 43.9-45.2 53.6-71.4z" opacity=".38" fill="#fff"/><path d="M-4882.9 1669.8c-13.2-10.9-23.6-23.6-29.6-38.5-3.6-8.9-5.1-19.2-5.3-29.8l129-122.1c17.9 3.9 36.1 10 53.7 16.5 8.1 3 16.4 6.4 24.6 10.1l-172.4 163.8zm37.2 23.4c-9.3-4.6-18.2-9.6-26.3-15.2l173.6-166.4c8.3 4.1 16.5 8.6 24.3 13.4l-171.6 168.2zm380 123c-18-20.1-29.5-44.1-33.8-69.3l120.8-114.3c19.8 3.8 39.6 9.6 57.4 16.2 7.5 2.8 15.1 5.7 22.5 8.8l-166.9 158.6zm31.3 26.8c-8.4-5.5-16.1-11.6-23-18.2l171.4-161.6c8.7 4 17.1 8.3 25 13l-173.4 166.8z" opacity=".51" fill="#fff"/></svg>