<svg xmlns="http://www.w3.org/2000/svg" viewBox="0 0 499.6 285.7"><path fill="#2d6fa5" d="M490.6 187.2v33h-9.8v13h-14.2v7.7h-7v-29.8h-4.4v-3.8h-15.7v3.8H433v-14.8h-8.1v-4.9l-8.6-.9v-6.8l-10.6 1.2v4.5l-12.5-1.3v8.2H385V209h-10.1v31.9h-12.5v-11.6h-18.8v-9l-4.6.6v-5l-10.6 1.3v4.9l-4.5.6v6.6h-9.5v7h-13.9v-4.7h-36.9v-7.4h-9.5v-6.8l-4.5-.6v-5.2l-10.6-1.3v5.2l-4.6-.6v9.3h-18.8v12.1h-12.5V203H193v-13.1h-8.2v-8.6l-12.5 1.3V178l-10.6-1.3v7.1l-8.6.9v5.2H145v15.3h-6.5v-3.9h-15.7v3.9h-4.4v31.1h-7v-8H97.2v-13.5h-9.8v-34.5l-24-3.6v38.1h-8.7V203h-9.8v-5l-10.7-1.3v6.3h-3.5v11.4h-7.8v-9.2H0v80.5h499.6v-99.8z"/><path d="M499.6 218.4v-1.5c-10.6-4.2-17.9-7.9-20.5-9.2-.3-.7-1-1.3-1.9-1.5l-4.2-.7c-.2-.2-.5-.2-.8-.1l-14.4-2.4c-1.5-.3-2.9.9-2.9 2.5v.6c-28 21.1-53.7 26.9-73.5 26.8-.4-.1-.7-.1-1.1-.2-18.5-3.1-31.5-10.8-36-13.7-.1-.9-.7-1.6-1.6-1.7l-14.8-2.5c-.5-.1-1 .1-1.4.3-.1 0-.1 0-.2.1-8.6 6.7-16.9 11.4-24.7 14.6v-5h-22.9v7.9h-7.8v-9.8h-3.5v-5.5l-10.7 1.1v4.4h-9.9v4.4c-.1-.1-.3-.2-.4-.2V222c0-.9-.6-1.6-1.5-1.7l-6.7-1.1v-18.9l-18.6 2.4v-61.6H215V123h-5.4v-14.2h-2.3v-7.3l-4.7-4.7h-.6V81.7h-1V68.6h-1.7v13.1h-1v14.9h-.6l-4.7 4.7v7.3h-2.3v14.2h-5.4v18.1h-4.6v83.8H179v-3.4h-15.7v3.4h-6.4v-13.2h-8.2V207l-8.6-.8v-6.1l-10.7 1.1v4l-12.5-1.2v7.4h-8.2v11.3H98.5v28.7H86V241H67.1v-8l-4.5.5V229L52 230.2v4.5l-4.5.5v5.9H38v6.3H1.1v4.1H0v34.2h499.6V260l-4.2-.3V257l-10-.7v2.7l-4.2-.3v4.8h-1.8v-14.8l20.3-.2v-10h-1.6V230c.5.1 1 .3 1.6.4v-1.5c-.5-.1-1.1-.3-1.6-.4v-3.4c.5.1 1 .3 1.6.4V224c-.5-.1-1-.3-1.6-.4v-2.2c.5.2 1 .4 1.6.5v-1.5c-.5-.2-1-.4-1.6-.6v-2.1c.4.3 1 .5 1.5.7zm-258 9.8c.2-.1.4-.1.6-.1 1.1 0 2.1 1 2.2 2.2-1-.4-1.9-.8-2.8-1.2v-.9zm2.8 4.7h-2.8v-2.1c.9.5 1.8.9 2.8 1.4v.7zm2.4-1.6c-.1 0-.3-.1-.4-.1v-.8c.1.1.3.2.4.3v.6zm0-1.8c-.1-.1-.3-.2-.4-.3v-1.1c.1.1.3.2.4.2v1.2zm70.4-6.8c.9-.5 1.7-1.1 2.6-1.7v2.6c-.9.6-1.7 1.1-2.6 1.6v-2.5zm0 3.6c.9-.5 1.7-1.1 2.6-1.6v2.8c-.9.4-1.7.9-2.6 1.3v-2.5zm0 3.5c.9-.4 1.7-.8 2.6-1.3v2.4c-.9.5-1.7.9-2.6 1.3v-2.4zm0 3.6c.9-.4 1.7-.9 2.6-1.3v11.8l-2.6.1v-10.6zm-3-8.9c.9-.5 1.7-1 2.6-1.5v2.6c-.9.5-1.7 1-2.6 1.5v-2.6zm0 3.6c.9-.5 1.7-1 2.6-1.5v2.4c-.9.4-1.7.8-2.6 1.2v-2.1zm0 3.1c.9-.4 1.7-.8 2.6-1.2v2.5c-.9.4-1.7.8-2.6 1.2v-2.5zm0 3.6c.9-.4 1.7-.8 2.6-1.2V244l-2.6.1v-9.3zm-3.1-8.6c.9-.5 1.7-.9 2.6-1.4v2.5c-.9.5-1.7 1-2.6 1.4v-2.5zm0 3.6c.9-.4 1.7-.9 2.6-1.4v2c-.9.4-1.7.7-2.6 1.1v-1.7zm0 2.7c.9-.3 1.7-.7 2.6-1v2.5c-.9.4-1.7.7-2.6 1.1v-2.6zm0 3.6c.9-.3 1.7-.7 2.6-1.1v9.1l-2.6.1v-8.1zm-3-8.3c.9-.4 1.7-.9 2.6-1.3v2.5c-.9.4-1.7.9-2.6 1.3v-2.5zm0 3.5c.9-.4 1.7-.8 2.6-1.3v1.6c-.9.3-1.7.6-2.6.9v-1.2zm0 2.3c.9-.3 1.7-.6 2.6-.9v2.6c-.9.3-1.7.7-2.6 1v-2.7zm0 3.7c.9-.3 1.7-.6 2.6-1v7.9l-2.6.1v-7zm-3-8.1c.9-.4 1.7-.8 2.6-1.2v2.4c-.9.4-1.7.8-2.6 1.2v-2.4zm0 3.5c.9-.4 1.7-.8 2.6-1.2v1.2c-.9.3-1.7.6-2.6.8v-.8zm0 1.9c.9-.3 1.7-.5 2.6-.8v2.6c-.9.3-1.7.6-2.6.9v-2.7zm0 3.7c.9-.3 1.7-.6 2.6-.9v6.8l-2.6.1v-6zm-3.1-7.8c.9-.4 1.7-.7 2.6-1.1v2.4c-.9.4-1.7.7-2.6 1v-2.3zm0 3.4c.9-.3 1.7-.7 2.6-1v.8c-.9.3-1.7.5-2.6.7v-.5zm0 1.6c.9-.2 1.7-.5 2.6-.7v2.7c-.9.3-1.7.5-2.6.7v-2.7zm0 3.7c.9-.2 1.7-.5 2.6-.7v5.9l-2.6.1v-5.3zm18.1 19.5H312v-6.1h-9.3v-2.2l17.4-.2v8.5zm2.7-19.5l-2.6-.2v-7.1c.9-.5 1.7-.9 2.6-1.4v8.7zm0-9.9c-.9.5-1.7 1-2.6 1.5v-2.4c.9-.4 1.7-.9 2.6-1.4v2.3zm0-3.5c-.9.5-1.7.9-2.6 1.4v-2.8c.9-.6 1.7-1.1 2.6-1.7v3.1zm0-4.3c-.9.6-1.7 1.2-2.6 1.8v-2.6c.9-.6 1.7-1.2 2.6-1.8v2.6zm2.9 17.9l-2.4-.2v-9.1l2.4-1.5v10.8zm0-11.9l-2.4 1.5v-2.3c.8-.5 1.6-.9 2.4-1.4v2.2zm0-3.4c-.8.5-1.6 1-2.4 1.4v-3.3l2.4-1.8v3.7zm0-4.8l-2.4 1.8v-2.6l2.4-1.8v2.6zm8.4 20.8l-4.9-.4v-11.9c0-.8.3-1.5.7-2l.9-.6c.2-.1.5-.1.8-.1 1.3 0 2.4 1.2 2.4 2.8v12.2h.1zm8 .7l-4.9-.4v-11.8c0-1.5 1.1-2.8 2.4-2.8h.1c.5.3 1.1.5 1.6.8.4.5.7 1.2.7 1.9l.1 12.3zm108.1-29.6c.7-.5 1.5-1 2.2-1.6v3.4c-.7.5-1.5 1.1-2.2 1.6v-3.4zm0 5.2c.7-.5 1.5-1 2.2-1.5v3.8c-.7.4-1.5.8-2.2 1.2v-3.5zm0 5.1c.7-.4 1.5-.8 2.2-1.2v3.6c-.7.4-1.5.9-2.2 1.3v-3.7zm0 5.3c.7-.4 1.5-.8 2.2-1.3V240l-2.2.1v-13.3zm-2.8-13.8c.7-.5 1.5-1 2.2-1.5v3.4c-.7.5-1.5 1-2.2 1.5V213zm0 5.2c.7-.5 1.5-1 2.2-1.5v3.4c-.7.4-1.5.8-2.2 1.2v-3.1zm0 4.7c.7-.4 1.5-.8 2.2-1.2v3.7c-.7.4-1.5.8-2.2 1.2v-3.7zm0 5.3c.7-.4 1.5-.8 2.2-1.2v13l-2.2.1v-11.9zm-2.7-13.4c.7-.5 1.5-1 2.2-1.4v3.4c-.7.5-1.5 1-2.2 1.4v-3.4zm0 5.1c.7-.5 1.5-.9 2.2-1.4v3c-.7.4-1.5.7-2.2 1.1v-2.7zm0 4.3c.7-.4 1.5-.7 2.2-1.1v3.7c-.7.4-1.5.8-2.2 1.1v-3.7zm0 5.4c.7-.4 1.5-.8 2.2-1.1v11.7l-2.2.1v-10.7zm-2.7-13.1c.7-.4 1.5-.9 2.2-1.4v3.4c-.7.5-1.5.9-2.2 1.4v-3.4zm0 5c.7-.4 1.5-.9 2.2-1.3v2.6c-.7.4-1.5.7-2.2 1v-2.3zm0 3.9c.7-.3 1.5-.7 2.2-1v3.8c-.7.4-1.5.7-2.2 1.1v-3.9zm-46.1 10h1c-.3 0-.7.1-1 0zm-2.7-1.8c.7-.1 1.5-.2 2.2-.3v.6c-.8 0-1.5 0-2.2-.1v-.2zm0 1.8c.7 0 1.5 0 2.2.1v.2c-.7.1-1.5.1-2.2.2v-.5zm0 1.9c.7-.1 1.5-.1 2.2-.2v2.5c-.8 0-1.5-.1-2.2-.1v-2.2zm0 3.6c.7 0 1.5.1 2.2.1v.7l-2.2.1v-.9zm-.5-7.2v.2c-.4 0-.9 0-1.3-.1.4 0 .9-.1 1.3-.1zm-2.2 1.5c.7 0 1.5.1 2.2.1v.5c-.8 0-1.5.1-2.2.1v-.7zm0 2.2c.7 0 1.5-.1 2.2-.1v2.1c-.8 0-1.5-.1-2.2-.2v-1.8zm0 3.3c.7.1 1.5.1 2.2.2v.9l-2.2.1v-1.2zm-2.7-5.7c.7.1 1.5.1 2.2.2v.8c-.8 0-1.5 0-2.2.1V235zm0 2.5c.7 0 1.5 0 2.2-.1v1.8c-.8-.1-1.5-.1-2.2-.2v-1.5zm0 2.9c.7.1 1.5.2 2.2.2v1.2l-2.2.1v-1.5zm-2.7-5.7c.7.1 1.5.2 2.2.2v1h-2.2v-1.2zm0 2.8h2.2v1.4c-.8-.1-1.5-.2-2.2-.3v-1.1zm0 2.6c.7.1 1.5.2 2.2.3v1.6l-2.2.1v-2zm-2.7-5.7c.7.1 1.5.2 2.2.3v1.3c-.8 0-1.5 0-2.2-.1v-1.5zm0 3c.7 0 1.5.1 2.2.1v1.1c-.8-.1-1.5-.2-2.2-.4v-.8zm0 2.2c.7.1 1.5.3 2.2.4v2l-2.2.1v-2.5zm-2.8-5.4h1.9c.1 0 .2 0 .4.1v1.6c-.8 0-1.5-.1-2.2-.1l-.1-1.6zm0 3c.7.1 1.5.1 2.2.1v.7c-.8-.1-1.5-.3-2.2-.4v-.4zm0 1.9c.7.2 1.5.3 2.2.4v2.6l-2.2.1v-3.1zm-2.7-5c.7 0 1.5.1 2.2.1v1.6c-.8-.1-1.5-.1-2.2-.2v-1.5zm0 2.9c.7.1 1.5.1 2.2.2v.3c-.2 0-.4-.1-.7-.1-.4-.1-.9-.3-1.5-.4zm0 1.5l1.2.3c.3.1.7.1 1 .2v3.2l-2.2.1v-3.8zm-2.7-4.6c.7.1 1.5.1 2.2.2v1.4c-.8-.1-1.5-.2-2.2-.3v-1.3zm0 3.9c.7.2 1.5.4 2.2.6v3.9l-2.2.1v-4.6zm-2.7-4.1c.7.1 1.5.1 2.2.2v1.3c-.8-.1-1.5-.2-2.2-.3v-1.2zm0 3.3c.7.2 1.5.4 2.2.7v4.7l-2.2.1V237zm-2.7-5.6c.7.2 1.5.4 2.2.6v.1c-.8-.1-1.5-.2-2.2-.3v-.4zm0 1.9c.7.1 1.5.2 2.2.3v1.2c-.8-.1-1.5-.3-2.2-.4v-1.1zm0 2.8c.7.2 1.5.5 2.2.7v5.6l-2.2.1v-6.4zm-2.7-5.5c.7.2 1.5.5 2.2.7v.6c-.8-.1-1.5-.2-2.2-.3v-1zm0 2.3c.7.1 1.5.2 2.2.3v1c-.3-.1-.5-.1-.8-.2-.5-.2-1-.4-1.4-.5v-.6zm0 2.4c.3.1.7.1 1 .2.4.1.8.3 1.2.4v6.5l-2.2.1v-7.2zm-2.7-5.6c.7.3 1.5.5 2.2.8v1h-.1c-.7-.1-1.4-.3-2.1-.4v-1.4zm0 2.8l1.8.3c.1 0 .3 0 .4.1v.6c-.8-.4-1.5-.7-2.2-1zm0 2.2c.7.2 1.4.3 2.1.5h.2v7.4l-2.2.1v-8h-.1zm-2.7-6c.7.3 1.5.6 2.2.8v1.4c-.8-.1-1.5-.3-2.2-.5v-1.7zm0 5.3c.7.2 1.5.4 2.2.6v8.1l-2.2.1V234zm-2.8-6.4c.7.3 1.5.6 2.2.9v1.9c-.8-.2-1.5-.3-2.2-.5v-2.3zm0 5.6c.7.2 1.5.4 2.2.6v8.9l-2.2.1v-9.6zm-2.7-6.8c.7.3 1.5.7 2.2 1v2.3c-.2-.1-.4-.1-.6-.2-.5-.3-1.1-.6-1.6-.8v-2.3zm0 4.2c.4.1.7.2 1.1.3.4.2.8.4 1.1.6v.1c-.8-.2-1.5-.5-2.2-.7v-.3zm0 1.8c.7.2 1.5.5 2.2.7v9.7l-2.2.1v-10.5zm-2.7-7.3c.7.4 1.5.7 2.2 1.1v2.2c-.8-.4-1.5-.8-2.2-1.2v-2.1zm0 4.7c.7.2 1.5.4 2.2.7v.2c-.8-.3-1.5-.5-2.2-.8v-.1zm0 1.6c.7.3 1.5.5 2.2.8v10.7l-2.2.1v-11.6zm-2.7-7.7c.7.4 1.4.8 2.2 1.1v2c-.8-.5-1.5-.9-2.2-1.4v-1.7zm2.2 5.9c-.4-.1-.8-.2-1.2-.4.5.2.9.3 1.2.4zm-2.2-2.4c.2.1.4.2.6.4-.2-.1-.4-.1-.6-.2v-.2zm0 3.2c.7.3 1.5.6 2.2.9V243l-2.2.1v-12.7zm-2.7-8.2c.7.4 1.4.8 2.2 1.2v1.8c-.8-.5-1.6-1-2.2-1.5v-1.5zm0 3.3c.7.5 1.4.9 2.2 1.4v.3c-.8-.3-1.5-.5-2.2-.8v-.9zm0 3.8c.7.3 1.5.6 2.2.9v12.9l-2.2.1v-13.9zm-2.8-8.7c.6.4 1.4.9 2.3 1.4v1.5c-.9-.6-1.6-1.2-2.3-1.6v-1.3zm0 3c.7.5 1.4 1 2.3 1.6v1.1c-.8-.3-1.5-.6-2.3-.9v-1.8zm0 4.4c.7.3 1.5.7 2.3 1v14.1l-2.3.1V228zm52.6 25.7h-6.1v-2.1H376v2.1h-4.1v16.1h-6.6v-4.2H352v-7h-7.7V250l52.5-.5v4.2h.1zm1.3-12.1l-2.2.1v-.7h2.2v.6zm0-2H396V237c.7-.1 1.5-.2 2.2-.2v2.8zm0-5.6H396v-.7c.7-.1 1.5-.2 2.2-.3v1zm2.7 7.5l-2.2.1v-.5h2.2v.4zm0-1.9h-2.2v-2.9c.7-.1 1.5-.2 2.2-.3v3.2zm0-5.7c-.8 0-1.5.1-2.2.1v-1c.7-.1 1.5-.2 2.2-.4v1.3zm2.7 7.5l-2.2.1v-.5c.7 0 1.5-.1 2.2-.1v.5zm0-1.9c-.8 0-1.5.1-2.2.1v-3.2c.7-.1 1.5-.2 2.2-.4v3.5zm0-5.8c-.8.1-1.5.1-2.2.1v-1.4c.7-.1 1.5-.3 2.2-.4v1.7zm2.7 7.7l-2.2.1v-.5c.7 0 1.5-.1 2.2-.2v.6zm0-2.1c-.8.1-1.5.1-2.2.2V236c.7-.1 1.5-.3 2.2-.4v3.7zm0-5.8c-.8.1-1.5.1-2.2.2v-1.8c.7-.2 1.5-.3 2.2-.5v2.1zm2.7 7.8l-2.2.1v-.6c.7-.1 1.5-.1 2.2-.2v.7zm0-2.3c-.8.1-1.5.2-2.2.2v-3.8c.2 0 .4-.1.6-.1.5-.1 1.1-.2 1.6-.4v4.1zm0-5.8c-.8.1-1.5.2-2.2.2v-2.2h.1c.7-.2 1.4-.4 2.1-.5v2.5zm2.7 8l-2.2.1v-.8c.7-.1 1.5-.2 2.2-.3v1zm0-2.6c-.8.1-1.5.2-2.2.3v-4.1c.4-.1.8-.2 1.3-.3.3 0 .6-.1 1-.1l-.1 4.2zm0-5.9c-.5.1-1 .3-1.4.4-.3 0-.5.1-.8.1v-2.6c.7-.2 1.5-.4 2.2-.6v2.7zm.9 8.5h-.4v-1.1c.1 0 .3 0 .4-.1v1.2zm1.8-3c-.8.1-1.5.2-2.2.4v-4.3c.7-.1 1.5-.2 2.2-.4v4.3zm0-6.3c-.7.2-1.5.4-2.2.6v-2.8c.7-.2 1.5-.4 2.2-.7v2.9zm2.7 5.8c-.7.2-1.5.3-2.2.4v-4.3c.7-.1 1.5-.3 2.2-.4v4.3zm0-6.6c-.7.2-1.5.5-2.2.7V229c.7-.2 1.5-.5 2.2-.7v2.8zm2.7 8.3l-2.2-.2v-.1c.4-.1.9-.2 1.3-.3.3-.1.6-.1 1-.2l-.1.8zm0-2.3c-.7.2-1.5.3-2.2.5v-4.3c.7-.2 1.5-.3 2.2-.5v4.3zm0-6.9c-.7.3-1.5.5-2.2.8v-2.9c.7-.3 1.5-.5 2.2-.8v2.9zm2.8 9.4l-2.2-.2v-.9c.7-.2 1.5-.4 2.2-.5v1.6zm0-3.2c-.7.2-1.5.4-2.2.6v-4.2c.5-.1.9-.2 1.4-.3.3-.1.5-.1.8-.2v4.1zm0-7.2c-.7.3-1.5.6-2.2.8v-3c.7-.3 1.5-.6 2.2-.9v3.1zm2.7 11.6l-2.2.1v-3c.7-.2 1.5-.4 2.2-.6v3.5zm0-5.1c-.7.2-1.5.4-2.2.6v-4.2c.7-.2 1.5-.4 2.2-.6v4.2zm0-5.7c-.5.1-1 .3-1.5.4l1.5-.6v.2zm0-1.8c-.7.3-1.5.6-2.2.9v-3c.7-.3 1.5-.6 2.2-.9v3zm2.7 12.5l-2.2.1v-3.7c.7-.2 1.5-.4 2.2-.7v4.3zm0-5.8c-.7.2-1.5.5-2.2.7v-4.2c.7-.2 1.5-.4 2.2-.7v4.2zm0-5.7c-.7.2-1.5.5-2.2.7v-.2c.7-.3 1.5-.6 2.2-.9v.4zm0-2.2c-.7.3-1.5.6-2.2.9v-3.1c.7-.3 1.5-.7 2.2-1v3.2zm2.7 13.6l-2.2.1v-4.4c.7-.2 1.5-.5 2.2-.7v5zm0-6.6c-.7.3-1.5.5-2.2.7v-4.1c.7-.2 1.5-.5 2.2-.7v4.1zm0-5.7c-.7.3-1.5.5-2.2.7v-.6c.7-.3 1.5-.7 2.2-1v.9zm0-2.5c-.7.3-1.5.7-2.2 1v-3.2c.7-.3 1.5-.7 2.2-1.1v3.3zm2.7 14.8l-2.2.1v-5.2c.7-.3 1.5-.5 2.2-.8v5.9zm0-7.6c-.7.3-1.5.6-2.2.8v-4.1c.7-.3 1.5-.5 2.2-.8v4.1zm0-5.7c-.7.3-1.5.5-2.2.8v-.9c.7-.3 1.5-.7 2.2-1.1v1.2zm0-2.8c-.7.4-1.5.7-2.2 1.1v-3.2c.7-.4 1.5-.7 2.2-1.1v3.2zm2.7 16l-2.2.1v-6.2c.7-.3 1.5-.6 2.2-.9v7zm0-8.6c-.7.3-1.5.6-2.2.9v-4.1c.7-.3 1.5-.6 2.2-.8v4zm0-5.6c-.7.3-1.5.6-2.2.8v-1.3c.7-.4 1.5-.7 2.2-1.1v1.6zm0-3.2c-.7.4-1.5.8-2.2 1.1V221c.7-.4 1.5-.8 2.2-1.2v3.3zm2.7 17.3l-2.2.1v-7.1c.7-.3 1.5-.6 2.2-.9v7.9zm0-9.6c-.7.3-1.5.6-2.2.9v-4c.7-.3 1.5-.6 2.2-.9v4zm0-5.6c-.7.3-1.5.6-2.2.9v-1.6c.7-.4 1.5-.8 2.2-1.2v1.9zm0-3.5c-.7.4-1.5.8-2.2 1.2v-3.3c.7-.4 1.5-.8 2.2-1.2v3.3zm2.7 18.6l-2.2.1v-8.2c.7-.3 1.5-.7 2.2-1v9.1zm0-10.8c-.7.3-1.5.7-2.2 1v-3.9c.7-.3 1.5-.6 2.2-1v3.9zm0-5.5c-.7.3-1.5.7-2.2 1v-2c.7-.4 1.5-.8 2.2-1.3v2.3zm0-3.9c-.7.4-1.5.9-2.2 1.3v-3.3c.7-.4 1.5-.9 2.2-1.3v3.3zm.5 10.8c.7-.3 1.5-.7 2.2-1.1v10.4l-2.2.1v-9.4zm12.9 39h-3.4v-17.3H442v-3.5l12.9-.1v20.9zm0-30l-2.1.1v-14.8l2.1-1.2v15.9zm0-17.6c-.7.4-1.4.8-2.1 1.3V220l2.1-1.2v3.5zm0-5.2l-2.1 1.2v-3.8l2.1-1.5v4.1zm0-5.9l-2.1 1.5v-3.4l2.1-1.5v3.4zm6.5 5.6c.3.2.7.3 1 .5-.9.7-1.9 1.3-2.8 1.9.2-1 .9-1.9 1.8-2.4zm4.5 22.8l-6.3.2v-18.7c1.5-1 3-2 4.4-3.1.5.2 1.1.5 1.7.7.2.4.2.9.2 1.4v19.5zm10.4-.3l-6.3.2v-18.9c1.9.8 4 1.6 6.3 2.5v16.2zm0-17.8c-2.1-.8-4.1-1.6-5.9-2.3.5-1 1.5-1.7 2.6-1.7.6.2 1.3.4 1.9.6.8.7 1.4 1.7 1.4 3v.4zm6.1 17.6l-3.1.1v-15.1c1 .4 2 .7 3.1 1.1v13.9zm0-15.4c-1.1-.4-2.1-.7-3.1-1.1v-3.1c1 .3 2 .6 3.1 1v3.2zm0-4.7c-1.1-.3-2.1-.7-3.1-1v-3.8c1 .4 2 .8 3.1 1.3v3.5zm0-5.1c-1.1-.4-2.1-.9-3.1-1.3v-3.3c.8.4 1.8.9 3.1 1.5v3.1zm3 25.1l-2.6.1v-13.7c.8.3 1.7.6 2.6.9V239zm0-14.3c-.9-.3-1.7-.6-2.6-.9v-3.2c.8.3 1.7.5 2.6.8v3.3zm0-4.8c-.9-.3-1.7-.5-2.6-.8v-3.5c.8.3 1.7.7 2.6 1v3.3zm0-4.7c-.9-.3-1.7-.7-2.6-1v-3c.8.4 1.6.8 2.6 1.2v2.8zm3 23.7l-2.6.1v-12.6c.8.3 1.7.5 2.6.8v11.7zm0-13.2c-.9-.3-1.7-.5-2.6-.8v-3.3c.8.3 1.7.5 2.6.8v3.3zm0-4.9c-.9-.3-1.7-.5-2.6-.8v-3.2c.8.3 1.7.7 2.6 1v3zm0-4.5c-.9-.3-1.7-.7-2.6-1v-2.8c.8.4 1.7.8 2.6 1.2v2.6zm3.1 22.5l-2.6.1v-11.6c.8.3 1.7.5 2.6.8v10.7zm0-12.2c-.9-.3-1.7-.5-2.6-.8v-3.4c.8.2 1.7.5 2.6.7v3.5zm0-4.9c-.9-.3-1.7-.5-2.6-.7v-3c.8.3 1.7.6 2.6 1v2.7zm0-4.2c-.9-.3-1.7-.6-2.6-1v-2.6c.8.4 1.7.7 2.6 1.1v2.5zm3 21.2l-2.6.1v-10.6c.4.1.7.2 1.1.3.5.1 1 .3 1.5.4v9.8zm0-11.2c-.4-.1-.7-.2-1.1-.3-.5-.1-1-.3-1.5-.4v-3.4c.8.2 1.7.5 2.6.7v3.4zm0-4.9c-.9-.2-1.7-.5-2.6-.7v-2.7c.8.3 1.7.6 2.6.9v2.5zm0-4c-.9-.3-1.7-.6-2.6-.9v-2.4c.8.4 1.7.7 2.6 1.1v2.2zm3 20.1l-2.6.1v-9.6c.8.2 1.7.5 2.6.7v8.8zm0-10.3c-.9-.2-1.7-.5-2.6-.7v-3.4c.8.2 1.7.5 2.6.7v3.4zm0-4.9c-.9-.2-1.7-.5-2.6-.7v-2.4c.8.3 1.7.6 2.6.9v2.2zm0-3.8c-.9-.3-1.7-.6-2.6-.9v-2.2c.8.3 1.7.7 2.6 1.1v2z" fill="#4589ce"/></svg>